<mxfile host="app.diagrams.net" modified="2023-11-14T13:52:06.008Z" agent="Mozilla/5.0 (Macintosh; Intel Mac OS X 10_15_7) AppleWebKit/537.36 (KHTML, like Gecko) Chrome/117.0.0.0 Safari/537.36" etag="_1Lfcf6haAZUMCRLljul" version="21.7.5" type="github">
  <diagram name="第 1 页" id="d6MRnxnYvq7cuz7WkpIe">
    <mxGraphModel dx="1026" dy="655" grid="1" gridSize="10" guides="1" tooltips="1" connect="1" arrows="1" fold="1" page="1" pageScale="1" pageWidth="827" pageHeight="1169" math="0" shadow="0">
      <root>
        <mxCell id="0" />
        <mxCell id="1" parent="0" />
        <mxCell id="ac_ZkZ3lXmVVRXRC2ynP-134" value="" style="rounded=0;whiteSpace=wrap;html=1;fillColor=#f5f5f5;dashed=1;fontColor=#333333;strokeColor=#666666;" vertex="1" parent="1">
          <mxGeometry x="80" y="350" width="420" height="182.5" as="geometry" />
        </mxCell>
        <mxCell id="ac_ZkZ3lXmVVRXRC2ynP-152" value="" style="rounded=0;whiteSpace=wrap;html=1;fillColor=#f5f5f5;dashed=1;fontColor=#333333;strokeColor=#666666;" vertex="1" parent="1">
          <mxGeometry x="600" y="350" width="420" height="182.5" as="geometry" />
        </mxCell>
        <mxCell id="ac_ZkZ3lXmVVRXRC2ynP-94" value="" style="rounded=0;whiteSpace=wrap;html=1;fillColor=#f5f5f5;dashed=1;fontColor=#333333;strokeColor=#666666;" vertex="1" parent="1">
          <mxGeometry x="600" y="580" width="420" height="290" as="geometry" />
        </mxCell>
        <mxCell id="ac_ZkZ3lXmVVRXRC2ynP-153" style="edgeStyle=orthogonalEdgeStyle;rounded=0;orthogonalLoop=1;jettySize=auto;html=1;exitX=0.5;exitY=0;exitDx=0;exitDy=0;entryX=0.5;entryY=1;entryDx=0;entryDy=0;" edge="1" parent="1" source="ac_ZkZ3lXmVVRXRC2ynP-26" target="ac_ZkZ3lXmVVRXRC2ynP-134">
          <mxGeometry relative="1" as="geometry" />
        </mxCell>
        <mxCell id="ac_ZkZ3lXmVVRXRC2ynP-154" style="edgeStyle=orthogonalEdgeStyle;rounded=0;orthogonalLoop=1;jettySize=auto;html=1;exitX=1;exitY=0.5;exitDx=0;exitDy=0;entryX=0;entryY=0.5;entryDx=0;entryDy=0;" edge="1" parent="1" source="ac_ZkZ3lXmVVRXRC2ynP-26" target="ac_ZkZ3lXmVVRXRC2ynP-152">
          <mxGeometry relative="1" as="geometry" />
        </mxCell>
        <mxCell id="ac_ZkZ3lXmVVRXRC2ynP-156" style="edgeStyle=orthogonalEdgeStyle;rounded=0;orthogonalLoop=1;jettySize=auto;html=1;exitX=1;exitY=0.5;exitDx=0;exitDy=0;entryX=0;entryY=0.5;entryDx=0;entryDy=0;" edge="1" parent="1" source="ac_ZkZ3lXmVVRXRC2ynP-26" target="ac_ZkZ3lXmVVRXRC2ynP-155">
          <mxGeometry relative="1" as="geometry">
            <Array as="points">
              <mxPoint x="550" y="725" />
              <mxPoint x="550" y="603" />
            </Array>
          </mxGeometry>
        </mxCell>
        <mxCell id="ac_ZkZ3lXmVVRXRC2ynP-26" value="" style="rounded=0;whiteSpace=wrap;html=1;fillColor=#f5f5f5;dashed=1;fontColor=#333333;strokeColor=#666666;" vertex="1" parent="1">
          <mxGeometry x="80" y="580" width="420" height="290" as="geometry" />
        </mxCell>
        <mxCell id="ac_ZkZ3lXmVVRXRC2ynP-10" value="" style="group" vertex="1" connectable="0" parent="1">
          <mxGeometry x="100" y="640" width="160" height="200" as="geometry" />
        </mxCell>
        <mxCell id="ac_ZkZ3lXmVVRXRC2ynP-1" value="GPU 0" style="rounded=0;whiteSpace=wrap;html=1;movable=1;resizable=1;rotatable=1;deletable=1;editable=1;locked=0;connectable=1;" vertex="1" parent="ac_ZkZ3lXmVVRXRC2ynP-10">
          <mxGeometry width="160" height="25" as="geometry" />
        </mxCell>
        <mxCell id="ac_ZkZ3lXmVVRXRC2ynP-2" value="GPU 1" style="rounded=0;whiteSpace=wrap;html=1;movable=1;resizable=1;rotatable=1;deletable=1;editable=1;locked=0;connectable=1;" vertex="1" parent="ac_ZkZ3lXmVVRXRC2ynP-10">
          <mxGeometry y="25" width="160" height="25" as="geometry" />
        </mxCell>
        <mxCell id="ac_ZkZ3lXmVVRXRC2ynP-3" value="GPU 2" style="rounded=0;whiteSpace=wrap;html=1;movable=1;resizable=1;rotatable=1;deletable=1;editable=1;locked=0;connectable=1;" vertex="1" parent="ac_ZkZ3lXmVVRXRC2ynP-10">
          <mxGeometry y="50" width="160" height="25" as="geometry" />
        </mxCell>
        <mxCell id="ac_ZkZ3lXmVVRXRC2ynP-4" value="GPU 3" style="rounded=0;whiteSpace=wrap;html=1;movable=1;resizable=1;rotatable=1;deletable=1;editable=1;locked=0;connectable=1;" vertex="1" parent="ac_ZkZ3lXmVVRXRC2ynP-10">
          <mxGeometry y="75" width="160" height="25" as="geometry" />
        </mxCell>
        <mxCell id="ac_ZkZ3lXmVVRXRC2ynP-5" value="GPU 4" style="rounded=0;whiteSpace=wrap;html=1;movable=1;resizable=1;rotatable=1;deletable=1;editable=1;locked=0;connectable=1;" vertex="1" parent="ac_ZkZ3lXmVVRXRC2ynP-10">
          <mxGeometry y="100" width="160" height="25" as="geometry" />
        </mxCell>
        <mxCell id="ac_ZkZ3lXmVVRXRC2ynP-6" value="GPU 5" style="rounded=0;whiteSpace=wrap;html=1;movable=1;resizable=1;rotatable=1;deletable=1;editable=1;locked=0;connectable=1;" vertex="1" parent="ac_ZkZ3lXmVVRXRC2ynP-10">
          <mxGeometry y="125" width="160" height="25" as="geometry" />
        </mxCell>
        <mxCell id="ac_ZkZ3lXmVVRXRC2ynP-7" value="GPU 6" style="rounded=0;whiteSpace=wrap;html=1;movable=1;resizable=1;rotatable=1;deletable=1;editable=1;locked=0;connectable=1;" vertex="1" parent="ac_ZkZ3lXmVVRXRC2ynP-10">
          <mxGeometry y="150" width="160" height="25" as="geometry" />
        </mxCell>
        <mxCell id="ac_ZkZ3lXmVVRXRC2ynP-8" value="GPU 7" style="rounded=0;whiteSpace=wrap;html=1;movable=1;resizable=1;rotatable=1;deletable=1;editable=1;locked=0;connectable=1;" vertex="1" parent="ac_ZkZ3lXmVVRXRC2ynP-10">
          <mxGeometry y="175" width="160" height="25" as="geometry" />
        </mxCell>
        <mxCell id="ac_ZkZ3lXmVVRXRC2ynP-11" value="" style="group" vertex="1" connectable="0" parent="1">
          <mxGeometry x="320" y="640" width="160" height="200" as="geometry" />
        </mxCell>
        <mxCell id="ac_ZkZ3lXmVVRXRC2ynP-12" value="GPU 0" style="rounded=0;whiteSpace=wrap;html=1;movable=1;resizable=1;rotatable=1;deletable=1;editable=1;locked=0;connectable=1;" vertex="1" parent="ac_ZkZ3lXmVVRXRC2ynP-11">
          <mxGeometry width="160" height="25" as="geometry" />
        </mxCell>
        <mxCell id="ac_ZkZ3lXmVVRXRC2ynP-13" value="GPU 1" style="rounded=0;whiteSpace=wrap;html=1;movable=1;resizable=1;rotatable=1;deletable=1;editable=1;locked=0;connectable=1;" vertex="1" parent="ac_ZkZ3lXmVVRXRC2ynP-11">
          <mxGeometry y="25" width="160" height="25" as="geometry" />
        </mxCell>
        <mxCell id="ac_ZkZ3lXmVVRXRC2ynP-14" value="GPU 2" style="rounded=0;whiteSpace=wrap;html=1;movable=1;resizable=1;rotatable=1;deletable=1;editable=1;locked=0;connectable=1;" vertex="1" parent="ac_ZkZ3lXmVVRXRC2ynP-11">
          <mxGeometry y="50" width="160" height="25" as="geometry" />
        </mxCell>
        <mxCell id="ac_ZkZ3lXmVVRXRC2ynP-15" value="GPU 3" style="rounded=0;whiteSpace=wrap;html=1;movable=1;resizable=1;rotatable=1;deletable=1;editable=1;locked=0;connectable=1;" vertex="1" parent="ac_ZkZ3lXmVVRXRC2ynP-11">
          <mxGeometry y="75" width="160" height="25" as="geometry" />
        </mxCell>
        <mxCell id="ac_ZkZ3lXmVVRXRC2ynP-16" value="GPU 4" style="rounded=0;whiteSpace=wrap;html=1;movable=1;resizable=1;rotatable=1;deletable=1;editable=1;locked=0;connectable=1;" vertex="1" parent="ac_ZkZ3lXmVVRXRC2ynP-11">
          <mxGeometry y="100" width="160" height="25" as="geometry" />
        </mxCell>
        <mxCell id="ac_ZkZ3lXmVVRXRC2ynP-17" value="GPU 5" style="rounded=0;whiteSpace=wrap;html=1;movable=1;resizable=1;rotatable=1;deletable=1;editable=1;locked=0;connectable=1;" vertex="1" parent="ac_ZkZ3lXmVVRXRC2ynP-11">
          <mxGeometry y="125" width="160" height="25" as="geometry" />
        </mxCell>
        <mxCell id="ac_ZkZ3lXmVVRXRC2ynP-18" value="GPU 6" style="rounded=0;whiteSpace=wrap;html=1;movable=1;resizable=1;rotatable=1;deletable=1;editable=1;locked=0;connectable=1;" vertex="1" parent="ac_ZkZ3lXmVVRXRC2ynP-11">
          <mxGeometry y="150" width="160" height="25" as="geometry" />
        </mxCell>
        <mxCell id="ac_ZkZ3lXmVVRXRC2ynP-19" value="GPU 7" style="rounded=0;whiteSpace=wrap;html=1;movable=1;resizable=1;rotatable=1;deletable=1;editable=1;locked=0;connectable=1;" vertex="1" parent="ac_ZkZ3lXmVVRXRC2ynP-11">
          <mxGeometry y="175" width="160" height="25" as="geometry" />
        </mxCell>
        <mxCell id="ac_ZkZ3lXmVVRXRC2ynP-20" value="Node-0" style="text;html=1;align=center;verticalAlign=middle;resizable=0;points=[];autosize=1;strokeColor=none;fillColor=none;fontSize=16;" vertex="1" parent="1">
          <mxGeometry x="140" y="840" width="80" height="30" as="geometry" />
        </mxCell>
        <mxCell id="ac_ZkZ3lXmVVRXRC2ynP-21" value="Node-1" style="text;html=1;align=center;verticalAlign=middle;resizable=0;points=[];autosize=1;strokeColor=none;fillColor=none;fontSize=16;" vertex="1" parent="1">
          <mxGeometry x="360" y="840" width="80" height="30" as="geometry" />
        </mxCell>
        <mxCell id="ac_ZkZ3lXmVVRXRC2ynP-23" value="" style="shape=flexArrow;endArrow=classic;startArrow=classic;html=1;rounded=0;exitX=0;exitY=0;exitDx=0;exitDy=0;width=10;endSize=4.83;startSize=4.83;" edge="1" parent="1" source="ac_ZkZ3lXmVVRXRC2ynP-16">
          <mxGeometry width="100" height="100" relative="1" as="geometry">
            <mxPoint x="350" y="780" as="sourcePoint" />
            <mxPoint x="260" y="740" as="targetPoint" />
          </mxGeometry>
        </mxCell>
        <mxCell id="ac_ZkZ3lXmVVRXRC2ynP-25" value="ZeRO" style="text;html=1;align=center;verticalAlign=middle;resizable=0;points=[];autosize=1;strokeColor=none;fillColor=none;" vertex="1" parent="1">
          <mxGeometry x="260" y="700" width="60" height="30" as="geometry" />
        </mxCell>
        <mxCell id="ac_ZkZ3lXmVVRXRC2ynP-27" value="&lt;font style=&quot;font-size: 18px;&quot;&gt;Actor model&lt;/font&gt;" style="text;html=1;align=center;verticalAlign=middle;resizable=0;points=[];autosize=1;strokeColor=none;fillColor=none;" vertex="1" parent="1">
          <mxGeometry x="230" y="870" width="120" height="40" as="geometry" />
        </mxCell>
        <mxCell id="ac_ZkZ3lXmVVRXRC2ynP-53" value="GPU 0" style="rounded=0;whiteSpace=wrap;html=1;movable=1;resizable=1;rotatable=1;deletable=1;editable=1;locked=0;connectable=1;" vertex="1" parent="1">
          <mxGeometry x="150" y="370" width="110" height="25" as="geometry" />
        </mxCell>
        <mxCell id="ac_ZkZ3lXmVVRXRC2ynP-54" value="GPU 1" style="rounded=0;whiteSpace=wrap;html=1;movable=1;resizable=1;rotatable=1;deletable=1;editable=1;locked=0;connectable=1;" vertex="1" parent="1">
          <mxGeometry x="150" y="395" width="110" height="25" as="geometry" />
        </mxCell>
        <mxCell id="ac_ZkZ3lXmVVRXRC2ynP-71" value="Replica-0" style="text;html=1;align=center;verticalAlign=middle;resizable=0;points=[];autosize=1;strokeColor=none;fillColor=none;fontSize=16;" vertex="1" parent="1">
          <mxGeometry x="135" y="420" width="90" height="30" as="geometry" />
        </mxCell>
        <mxCell id="ac_ZkZ3lXmVVRXRC2ynP-75" value="&lt;font style=&quot;font-size: 18px;&quot;&gt;Reference model&lt;/font&gt;" style="text;html=1;align=center;verticalAlign=middle;resizable=0;points=[];autosize=1;strokeColor=none;fillColor=none;" vertex="1" parent="1">
          <mxGeometry x="210" y="310" width="160" height="40" as="geometry" />
        </mxCell>
        <mxCell id="ac_ZkZ3lXmVVRXRC2ynP-95" value="" style="group" vertex="1" connectable="0" parent="1">
          <mxGeometry x="620" y="640" width="160" height="200" as="geometry" />
        </mxCell>
        <mxCell id="ac_ZkZ3lXmVVRXRC2ynP-96" value="GPU 0" style="rounded=0;whiteSpace=wrap;html=1;movable=1;resizable=1;rotatable=1;deletable=1;editable=1;locked=0;connectable=1;" vertex="1" parent="ac_ZkZ3lXmVVRXRC2ynP-95">
          <mxGeometry width="160" height="25" as="geometry" />
        </mxCell>
        <mxCell id="ac_ZkZ3lXmVVRXRC2ynP-97" value="GPU 1" style="rounded=0;whiteSpace=wrap;html=1;movable=1;resizable=1;rotatable=1;deletable=1;editable=1;locked=0;connectable=1;" vertex="1" parent="ac_ZkZ3lXmVVRXRC2ynP-95">
          <mxGeometry y="25" width="160" height="25" as="geometry" />
        </mxCell>
        <mxCell id="ac_ZkZ3lXmVVRXRC2ynP-98" value="GPU 2" style="rounded=0;whiteSpace=wrap;html=1;movable=1;resizable=1;rotatable=1;deletable=1;editable=1;locked=0;connectable=1;" vertex="1" parent="ac_ZkZ3lXmVVRXRC2ynP-95">
          <mxGeometry y="50" width="160" height="25" as="geometry" />
        </mxCell>
        <mxCell id="ac_ZkZ3lXmVVRXRC2ynP-99" value="GPU 3" style="rounded=0;whiteSpace=wrap;html=1;movable=1;resizable=1;rotatable=1;deletable=1;editable=1;locked=0;connectable=1;" vertex="1" parent="ac_ZkZ3lXmVVRXRC2ynP-95">
          <mxGeometry y="75" width="160" height="25" as="geometry" />
        </mxCell>
        <mxCell id="ac_ZkZ3lXmVVRXRC2ynP-100" value="GPU 4" style="rounded=0;whiteSpace=wrap;html=1;movable=1;resizable=1;rotatable=1;deletable=1;editable=1;locked=0;connectable=1;" vertex="1" parent="ac_ZkZ3lXmVVRXRC2ynP-95">
          <mxGeometry y="100" width="160" height="25" as="geometry" />
        </mxCell>
        <mxCell id="ac_ZkZ3lXmVVRXRC2ynP-101" value="GPU 5" style="rounded=0;whiteSpace=wrap;html=1;movable=1;resizable=1;rotatable=1;deletable=1;editable=1;locked=0;connectable=1;" vertex="1" parent="ac_ZkZ3lXmVVRXRC2ynP-95">
          <mxGeometry y="125" width="160" height="25" as="geometry" />
        </mxCell>
        <mxCell id="ac_ZkZ3lXmVVRXRC2ynP-102" value="GPU 6" style="rounded=0;whiteSpace=wrap;html=1;movable=1;resizable=1;rotatable=1;deletable=1;editable=1;locked=0;connectable=1;" vertex="1" parent="ac_ZkZ3lXmVVRXRC2ynP-95">
          <mxGeometry y="150" width="160" height="25" as="geometry" />
        </mxCell>
        <mxCell id="ac_ZkZ3lXmVVRXRC2ynP-103" value="GPU 7" style="rounded=0;whiteSpace=wrap;html=1;movable=1;resizable=1;rotatable=1;deletable=1;editable=1;locked=0;connectable=1;" vertex="1" parent="ac_ZkZ3lXmVVRXRC2ynP-95">
          <mxGeometry y="175" width="160" height="25" as="geometry" />
        </mxCell>
        <mxCell id="ac_ZkZ3lXmVVRXRC2ynP-104" value="" style="group" vertex="1" connectable="0" parent="1">
          <mxGeometry x="840" y="640" width="160" height="200" as="geometry" />
        </mxCell>
        <mxCell id="ac_ZkZ3lXmVVRXRC2ynP-105" value="GPU 0" style="rounded=0;whiteSpace=wrap;html=1;movable=1;resizable=1;rotatable=1;deletable=1;editable=1;locked=0;connectable=1;" vertex="1" parent="ac_ZkZ3lXmVVRXRC2ynP-104">
          <mxGeometry width="160" height="25" as="geometry" />
        </mxCell>
        <mxCell id="ac_ZkZ3lXmVVRXRC2ynP-106" value="GPU 1" style="rounded=0;whiteSpace=wrap;html=1;movable=1;resizable=1;rotatable=1;deletable=1;editable=1;locked=0;connectable=1;" vertex="1" parent="ac_ZkZ3lXmVVRXRC2ynP-104">
          <mxGeometry y="25" width="160" height="25" as="geometry" />
        </mxCell>
        <mxCell id="ac_ZkZ3lXmVVRXRC2ynP-107" value="GPU 2" style="rounded=0;whiteSpace=wrap;html=1;movable=1;resizable=1;rotatable=1;deletable=1;editable=1;locked=0;connectable=1;" vertex="1" parent="ac_ZkZ3lXmVVRXRC2ynP-104">
          <mxGeometry y="50" width="160" height="25" as="geometry" />
        </mxCell>
        <mxCell id="ac_ZkZ3lXmVVRXRC2ynP-108" value="GPU 3" style="rounded=0;whiteSpace=wrap;html=1;movable=1;resizable=1;rotatable=1;deletable=1;editable=1;locked=0;connectable=1;" vertex="1" parent="ac_ZkZ3lXmVVRXRC2ynP-104">
          <mxGeometry y="75" width="160" height="25" as="geometry" />
        </mxCell>
        <mxCell id="ac_ZkZ3lXmVVRXRC2ynP-109" value="GPU 4" style="rounded=0;whiteSpace=wrap;html=1;movable=1;resizable=1;rotatable=1;deletable=1;editable=1;locked=0;connectable=1;" vertex="1" parent="ac_ZkZ3lXmVVRXRC2ynP-104">
          <mxGeometry y="100" width="160" height="25" as="geometry" />
        </mxCell>
        <mxCell id="ac_ZkZ3lXmVVRXRC2ynP-110" value="GPU 5" style="rounded=0;whiteSpace=wrap;html=1;movable=1;resizable=1;rotatable=1;deletable=1;editable=1;locked=0;connectable=1;" vertex="1" parent="ac_ZkZ3lXmVVRXRC2ynP-104">
          <mxGeometry y="125" width="160" height="25" as="geometry" />
        </mxCell>
        <mxCell id="ac_ZkZ3lXmVVRXRC2ynP-111" value="GPU 6" style="rounded=0;whiteSpace=wrap;html=1;movable=1;resizable=1;rotatable=1;deletable=1;editable=1;locked=0;connectable=1;" vertex="1" parent="ac_ZkZ3lXmVVRXRC2ynP-104">
          <mxGeometry y="150" width="160" height="25" as="geometry" />
        </mxCell>
        <mxCell id="ac_ZkZ3lXmVVRXRC2ynP-112" value="GPU 7" style="rounded=0;whiteSpace=wrap;html=1;movable=1;resizable=1;rotatable=1;deletable=1;editable=1;locked=0;connectable=1;" vertex="1" parent="ac_ZkZ3lXmVVRXRC2ynP-104">
          <mxGeometry y="175" width="160" height="25" as="geometry" />
        </mxCell>
        <mxCell id="ac_ZkZ3lXmVVRXRC2ynP-113" value="Node-0" style="text;html=1;align=center;verticalAlign=middle;resizable=0;points=[];autosize=1;strokeColor=none;fillColor=none;fontSize=16;" vertex="1" parent="1">
          <mxGeometry x="660" y="840" width="80" height="30" as="geometry" />
        </mxCell>
        <mxCell id="ac_ZkZ3lXmVVRXRC2ynP-114" value="Node-1" style="text;html=1;align=center;verticalAlign=middle;resizable=0;points=[];autosize=1;strokeColor=none;fillColor=none;fontSize=16;" vertex="1" parent="1">
          <mxGeometry x="880" y="840" width="80" height="30" as="geometry" />
        </mxCell>
        <mxCell id="ac_ZkZ3lXmVVRXRC2ynP-115" value="" style="shape=flexArrow;endArrow=classic;startArrow=classic;html=1;rounded=0;exitX=0;exitY=0;exitDx=0;exitDy=0;width=10;endSize=4.83;startSize=4.83;" edge="1" parent="1" source="ac_ZkZ3lXmVVRXRC2ynP-109">
          <mxGeometry width="100" height="100" relative="1" as="geometry">
            <mxPoint x="870" y="780" as="sourcePoint" />
            <mxPoint x="780" y="740" as="targetPoint" />
          </mxGeometry>
        </mxCell>
        <mxCell id="ac_ZkZ3lXmVVRXRC2ynP-116" value="ZeRO" style="text;html=1;align=center;verticalAlign=middle;resizable=0;points=[];autosize=1;strokeColor=none;fillColor=none;" vertex="1" parent="1">
          <mxGeometry x="780" y="700" width="60" height="30" as="geometry" />
        </mxCell>
        <mxCell id="ac_ZkZ3lXmVVRXRC2ynP-117" value="&lt;font style=&quot;font-size: 18px;&quot;&gt;Critic model&lt;/font&gt;" style="text;html=1;align=center;verticalAlign=middle;resizable=0;points=[];autosize=1;strokeColor=none;fillColor=none;" vertex="1" parent="1">
          <mxGeometry x="750" y="870" width="120" height="40" as="geometry" />
        </mxCell>
        <mxCell id="ac_ZkZ3lXmVVRXRC2ynP-121" value="Manager" style="rounded=0;whiteSpace=wrap;html=1;fillColor=#ffe6cc;strokeColor=#d79b00;" vertex="1" parent="1">
          <mxGeometry x="100" y="370" width="50" height="50" as="geometry" />
        </mxCell>
        <mxCell id="ac_ZkZ3lXmVVRXRC2ynP-122" value="GPU 0" style="rounded=0;whiteSpace=wrap;html=1;movable=1;resizable=1;rotatable=1;deletable=1;editable=1;locked=0;connectable=1;" vertex="1" parent="1">
          <mxGeometry x="370" y="370" width="110" height="25" as="geometry" />
        </mxCell>
        <mxCell id="ac_ZkZ3lXmVVRXRC2ynP-123" value="GPU 1" style="rounded=0;whiteSpace=wrap;html=1;movable=1;resizable=1;rotatable=1;deletable=1;editable=1;locked=0;connectable=1;" vertex="1" parent="1">
          <mxGeometry x="370" y="395" width="110" height="25" as="geometry" />
        </mxCell>
        <mxCell id="ac_ZkZ3lXmVVRXRC2ynP-124" value="Replica-1" style="text;html=1;align=center;verticalAlign=middle;resizable=0;points=[];autosize=1;strokeColor=none;fillColor=none;fontSize=16;" vertex="1" parent="1">
          <mxGeometry x="355" y="420" width="90" height="30" as="geometry" />
        </mxCell>
        <mxCell id="ac_ZkZ3lXmVVRXRC2ynP-125" value="Manager" style="rounded=0;whiteSpace=wrap;html=1;fillColor=#ffe6cc;strokeColor=#d79b00;" vertex="1" parent="1">
          <mxGeometry x="320" y="370" width="50" height="50" as="geometry" />
        </mxCell>
        <mxCell id="ac_ZkZ3lXmVVRXRC2ynP-126" value="GPU 0" style="rounded=0;whiteSpace=wrap;html=1;movable=1;resizable=1;rotatable=1;deletable=1;editable=1;locked=0;connectable=1;" vertex="1" parent="1">
          <mxGeometry x="150" y="450" width="110" height="25" as="geometry" />
        </mxCell>
        <mxCell id="ac_ZkZ3lXmVVRXRC2ynP-127" value="GPU 1" style="rounded=0;whiteSpace=wrap;html=1;movable=1;resizable=1;rotatable=1;deletable=1;editable=1;locked=0;connectable=1;" vertex="1" parent="1">
          <mxGeometry x="150" y="475" width="110" height="25" as="geometry" />
        </mxCell>
        <mxCell id="ac_ZkZ3lXmVVRXRC2ynP-128" value="Replica-2" style="text;html=1;align=center;verticalAlign=middle;resizable=0;points=[];autosize=1;strokeColor=none;fillColor=none;fontSize=16;" vertex="1" parent="1">
          <mxGeometry x="135" y="500" width="90" height="30" as="geometry" />
        </mxCell>
        <mxCell id="ac_ZkZ3lXmVVRXRC2ynP-129" value="Manager" style="rounded=0;whiteSpace=wrap;html=1;fillColor=#ffe6cc;strokeColor=#d79b00;" vertex="1" parent="1">
          <mxGeometry x="100" y="450" width="50" height="50" as="geometry" />
        </mxCell>
        <mxCell id="ac_ZkZ3lXmVVRXRC2ynP-130" value="GPU 0" style="rounded=0;whiteSpace=wrap;html=1;movable=1;resizable=1;rotatable=1;deletable=1;editable=1;locked=0;connectable=1;" vertex="1" parent="1">
          <mxGeometry x="370" y="450" width="110" height="25" as="geometry" />
        </mxCell>
        <mxCell id="ac_ZkZ3lXmVVRXRC2ynP-131" value="GPU 1" style="rounded=0;whiteSpace=wrap;html=1;movable=1;resizable=1;rotatable=1;deletable=1;editable=1;locked=0;connectable=1;" vertex="1" parent="1">
          <mxGeometry x="370" y="475" width="110" height="25" as="geometry" />
        </mxCell>
        <mxCell id="ac_ZkZ3lXmVVRXRC2ynP-132" value="Replica-3" style="text;html=1;align=center;verticalAlign=middle;resizable=0;points=[];autosize=1;strokeColor=none;fillColor=none;fontSize=16;" vertex="1" parent="1">
          <mxGeometry x="355" y="500" width="90" height="30" as="geometry" />
        </mxCell>
        <mxCell id="ac_ZkZ3lXmVVRXRC2ynP-133" value="Manager" style="rounded=0;whiteSpace=wrap;html=1;fillColor=#ffe6cc;strokeColor=#d79b00;" vertex="1" parent="1">
          <mxGeometry x="320" y="450" width="50" height="50" as="geometry" />
        </mxCell>
        <mxCell id="ac_ZkZ3lXmVVRXRC2ynP-135" value="GPU 0" style="rounded=0;whiteSpace=wrap;html=1;movable=1;resizable=1;rotatable=1;deletable=1;editable=1;locked=0;connectable=1;" vertex="1" parent="1">
          <mxGeometry x="670" y="370" width="110" height="25" as="geometry" />
        </mxCell>
        <mxCell id="ac_ZkZ3lXmVVRXRC2ynP-136" value="GPU 1" style="rounded=0;whiteSpace=wrap;html=1;movable=1;resizable=1;rotatable=1;deletable=1;editable=1;locked=0;connectable=1;" vertex="1" parent="1">
          <mxGeometry x="670" y="395" width="110" height="25" as="geometry" />
        </mxCell>
        <mxCell id="ac_ZkZ3lXmVVRXRC2ynP-137" value="Replica-0" style="text;html=1;align=center;verticalAlign=middle;resizable=0;points=[];autosize=1;strokeColor=none;fillColor=none;fontSize=16;" vertex="1" parent="1">
          <mxGeometry x="655" y="420" width="90" height="30" as="geometry" />
        </mxCell>
        <mxCell id="ac_ZkZ3lXmVVRXRC2ynP-138" value="&lt;font style=&quot;font-size: 18px;&quot;&gt;Reward model&lt;/font&gt;" style="text;html=1;align=center;verticalAlign=middle;resizable=0;points=[];autosize=1;strokeColor=none;fillColor=none;" vertex="1" parent="1">
          <mxGeometry x="740" y="310" width="140" height="40" as="geometry" />
        </mxCell>
        <mxCell id="ac_ZkZ3lXmVVRXRC2ynP-139" value="Manager" style="rounded=0;whiteSpace=wrap;html=1;fillColor=#ffe6cc;strokeColor=#d79b00;" vertex="1" parent="1">
          <mxGeometry x="620" y="370" width="50" height="50" as="geometry" />
        </mxCell>
        <mxCell id="ac_ZkZ3lXmVVRXRC2ynP-140" value="GPU 0" style="rounded=0;whiteSpace=wrap;html=1;movable=1;resizable=1;rotatable=1;deletable=1;editable=1;locked=0;connectable=1;" vertex="1" parent="1">
          <mxGeometry x="890" y="370" width="110" height="25" as="geometry" />
        </mxCell>
        <mxCell id="ac_ZkZ3lXmVVRXRC2ynP-141" value="GPU 1" style="rounded=0;whiteSpace=wrap;html=1;movable=1;resizable=1;rotatable=1;deletable=1;editable=1;locked=0;connectable=1;" vertex="1" parent="1">
          <mxGeometry x="890" y="395" width="110" height="25" as="geometry" />
        </mxCell>
        <mxCell id="ac_ZkZ3lXmVVRXRC2ynP-142" value="Replica-1" style="text;html=1;align=center;verticalAlign=middle;resizable=0;points=[];autosize=1;strokeColor=none;fillColor=none;fontSize=16;" vertex="1" parent="1">
          <mxGeometry x="875" y="420" width="90" height="30" as="geometry" />
        </mxCell>
        <mxCell id="ac_ZkZ3lXmVVRXRC2ynP-143" value="Manager" style="rounded=0;whiteSpace=wrap;html=1;fillColor=#ffe6cc;strokeColor=#d79b00;" vertex="1" parent="1">
          <mxGeometry x="840" y="370" width="50" height="50" as="geometry" />
        </mxCell>
        <mxCell id="ac_ZkZ3lXmVVRXRC2ynP-144" value="GPU 0" style="rounded=0;whiteSpace=wrap;html=1;movable=1;resizable=1;rotatable=1;deletable=1;editable=1;locked=0;connectable=1;" vertex="1" parent="1">
          <mxGeometry x="670" y="450" width="110" height="25" as="geometry" />
        </mxCell>
        <mxCell id="ac_ZkZ3lXmVVRXRC2ynP-145" value="GPU 1" style="rounded=0;whiteSpace=wrap;html=1;movable=1;resizable=1;rotatable=1;deletable=1;editable=1;locked=0;connectable=1;" vertex="1" parent="1">
          <mxGeometry x="670" y="475" width="110" height="25" as="geometry" />
        </mxCell>
        <mxCell id="ac_ZkZ3lXmVVRXRC2ynP-146" value="Replica-2" style="text;html=1;align=center;verticalAlign=middle;resizable=0;points=[];autosize=1;strokeColor=none;fillColor=none;fontSize=16;" vertex="1" parent="1">
          <mxGeometry x="655" y="500" width="90" height="30" as="geometry" />
        </mxCell>
        <mxCell id="ac_ZkZ3lXmVVRXRC2ynP-147" value="Manager" style="rounded=0;whiteSpace=wrap;html=1;fillColor=#ffe6cc;strokeColor=#d79b00;" vertex="1" parent="1">
          <mxGeometry x="620" y="450" width="50" height="50" as="geometry" />
        </mxCell>
        <mxCell id="ac_ZkZ3lXmVVRXRC2ynP-148" value="GPU 0" style="rounded=0;whiteSpace=wrap;html=1;movable=1;resizable=1;rotatable=1;deletable=1;editable=1;locked=0;connectable=1;" vertex="1" parent="1">
          <mxGeometry x="890" y="450" width="110" height="25" as="geometry" />
        </mxCell>
        <mxCell id="ac_ZkZ3lXmVVRXRC2ynP-149" value="GPU 1" style="rounded=0;whiteSpace=wrap;html=1;movable=1;resizable=1;rotatable=1;deletable=1;editable=1;locked=0;connectable=1;" vertex="1" parent="1">
          <mxGeometry x="890" y="475" width="110" height="25" as="geometry" />
        </mxCell>
        <mxCell id="ac_ZkZ3lXmVVRXRC2ynP-150" value="Replica-3" style="text;html=1;align=center;verticalAlign=middle;resizable=0;points=[];autosize=1;strokeColor=none;fillColor=none;fontSize=16;" vertex="1" parent="1">
          <mxGeometry x="875" y="500" width="90" height="30" as="geometry" />
        </mxCell>
        <mxCell id="ac_ZkZ3lXmVVRXRC2ynP-151" value="Manager" style="rounded=0;whiteSpace=wrap;html=1;fillColor=#ffe6cc;strokeColor=#d79b00;" vertex="1" parent="1">
          <mxGeometry x="840" y="450" width="50" height="50" as="geometry" />
        </mxCell>
        <mxCell id="ac_ZkZ3lXmVVRXRC2ynP-155" value="Manager" style="rounded=0;whiteSpace=wrap;html=1;fillColor=#ffe6cc;strokeColor=#d79b00;" vertex="1" parent="1">
          <mxGeometry x="620" y="590" width="380" height="25" as="geometry" />
        </mxCell>
        <mxCell id="ac_ZkZ3lXmVVRXRC2ynP-163" value="" style="endArrow=classic;html=1;rounded=0;" edge="1" parent="1">
          <mxGeometry width="50" height="50" relative="1" as="geometry">
            <mxPoint x="919.5" y="615" as="sourcePoint" />
            <mxPoint x="919.5" y="640" as="targetPoint" />
          </mxGeometry>
        </mxCell>
        <mxCell id="ac_ZkZ3lXmVVRXRC2ynP-168" value="" style="endArrow=classic;html=1;rounded=0;" edge="1" parent="1">
          <mxGeometry width="50" height="50" relative="1" as="geometry">
            <mxPoint x="699.5" y="614" as="sourcePoint" />
            <mxPoint x="699.5" y="639" as="targetPoint" />
          </mxGeometry>
        </mxCell>
      </root>
    </mxGraphModel>
  </diagram>
</mxfile>
